<svg preserveAspectRatio="none" overflow="visible" style="display: block;" width="19" height="19" viewBox="0 0 19 19" fill="none" xmlns="http://www.w3.org/2000/svg">
<g id="ProfileIcon">
<path id="Vector" d="M9.50015 16.625C9.50015 16.625 15.0418 11.7958 15.0418 7.12501C15.0418 6.39727 14.8985 5.67665 14.62 5.00431C14.3415 4.33196 13.9333 3.72105 13.4187 3.20646C12.9041 2.69187 12.2932 2.28367 11.6209 2.00518C10.9485 1.72668 10.2279 1.58334 9.50015 1.58334C8.7724 1.58334 8.05179 1.72668 7.37944 2.00518C6.7071 2.28367 6.09619 2.69187 5.5816 3.20646C5.06701 3.72105 4.65881 4.33196 4.38031 5.00431C4.10182 5.67665 3.95848 6.39727 3.95848 7.12501C3.95848 11.7958 9.50015 16.625 9.50015 16.625Z" stroke="white" stroke-width="1.77187" stroke-linecap="round" stroke-linejoin="round"/>
<path id="Vector_2" d="M9.50015 9.10418C10.5932 9.10418 11.4793 8.21807 11.4793 7.12501C11.4793 6.03195 10.5932 5.14584 9.50015 5.14584C8.40708 5.14584 7.52098 6.03195 7.52098 7.12501C7.52098 8.21807 8.40708 9.10418 9.50015 9.10418Z" stroke="white" stroke-width="1.77187" stroke-linecap="round" stroke-linejoin="round"/>
</g>
</svg>
