<?xml version="1.0" encoding="UTF-8"?> <svg xmlns="http://www.w3.org/2000/svg" xmlns:xlink="http://www.w3.org/1999/xlink" xmlns:xodm="http://www.corel.com/coreldraw/odm/2003" xml:space="preserve" width="120mm" height="210mm" version="1.1" style="shape-rendering:geometricPrecision; text-rendering:geometricPrecision; image-rendering:optimizeQuality; fill-rule:evenodd; clip-rule:evenodd" viewBox="0 0 12000 21000"> <defs> <style type="text/css"> .fil4 {fill:#43B5E5} .fil0 {fill:#EBBC03} .fil3 {fill:#293634;fill-rule:nonzero} .fil1 {fill:#D51C27;fill-rule:nonzero} .fil2 {fill:white;fill-rule:nonzero} </style> </defs> <g id="Capa_x0020_1"> <metadata id="CorelCorpID_0Corel-Layer"></metadata> <g id="_2578525770976"> <path class="fil0" d="M4597.14 17373.39l-957.55 0 0 2126.61 2334.43 -883.3 2386.39 883.3 0 -2126.61 -994.27 0c-371.17,323.55 -855.34,519.59 -1384.7,519.59 -529.04,-1.72 -1012.99,-197.57 -1384.3,-519.59zm1384.32 -3715.05c515.21,0 988.35,185.71 1355.91,493.62l1023.04 0 0 -9753.4 -2397.53 879.58 -2323.29 -879.58 0 9753.4 988.08 0c367.13,-306.55 839.12,-491.93 1353.79,-493.62zm-3562.9 -6540.16c75.11,-42.13 211.54,-146.36 211.54,-348.07 0,-278.35 -256.08,-515.88 -256.08,-515.88l-3.71 0c0,0 -256.08,241.24 -256.08,515.88 0,198.44 132.03,302.55 207.84,345.98l0 6995.03 96.49 0 0 -6992.94zm7185.14 -5618.18l-204.12 638.36 -671.74 0 545.55 389.69 -211.54 638.34 545.57 -393.4 541.85 393.4 -204.12 -638.34 538.15 -393.41 -668.04 0 -211.56 -634.64zm-2412.36 0l-204.13 638.36 -671.74 0 545.56 389.69 -211.55 638.34 549.28 -393.4 538.15 393.4 -204.13 -638.34 538.14 -393.41 -668.04 0 -211.54 -634.64zm-2404.95 0l-204.12 638.36 -671.75 0 545.56 389.69 -211.54 638.34 545.57 -393.4 541.85 393.4 -207.84 -638.34 541.85 -393.41 -668.04 0 -211.54 -634.64zm-2393.81 0l-204.12 638.36 -671.76 0 545.57 389.69 -211.54 638.34 545.57 -393.4 541.85 393.4 -207.84 -638.34 541.85 -393.41 -668.04 0 -211.54 -634.64zm7192.58 12611.12l96.49 0 0 -6992.94c75.12,-42.13 211.54,-146.36 211.54,-348.07 0,-278.35 -256.07,-515.88 -256.07,-515.88l-3.72 0c0,0 -256.08,241.24 -256.08,515.88 0,198.44 132.04,302.55 207.84,345.98l0 6995.03zm-40.83 -1436.27c0,0 -237.53,144.74 -452.78,-25.98 -218.97,-174.43 -244.96,-523.3 -244.96,-523.3l3.72 -3.71c0,0 348.86,-51.96 564.12,122.47 215.25,170.72 126.18,434.22 129.9,430.52zm189.28 11.13c0,0 241.24,137.33 452.78,-44.53 211.54,-181.86 226.4,-530.72 226.4,-530.72l-3.72 -3.71c0,0 -348.87,-40.82 -560.41,141.02 -207.84,181.85 -111.35,441.65 -115.05,437.94zm-189.28 -1157.93c0,0 -237.53,144.74 -452.78,-25.98 -218.97,-174.43 -244.96,-523.3 -244.96,-523.3l3.72 -3.71c0,0 348.86,-51.96 564.12,122.47 215.25,170.72 126.18,434.22 129.9,430.52zm189.28 11.12c0,0 241.24,137.33 452.78,-44.54 211.54,-181.86 226.4,-530.71 226.4,-530.71l-3.72 -3.72c0,0 -348.87,-40.82 -560.41,141.03 -207.84,181.86 -111.35,441.66 -115.05,437.94zm-189.28 -1154.22c0,0 -237.53,144.75 -452.78,-25.98 -218.97,-174.43 -244.96,-523.29 -244.96,-523.29l3.72 -3.72c0,0 348.86,-51.96 564.12,122.47 215.25,170.72 126.18,434.22 129.9,430.52zm189.28 11.14c0,0 241.24,137.32 452.78,-44.54 211.54,-181.86 226.4,-530.71 226.4,-530.71l-3.72 -3.72c0,0 -348.87,-40.82 -560.41,141.03 -207.84,181.84 -111.35,441.64 -115.05,437.94zm-189.28 -1154.24c0,0 -237.53,144.75 -452.78,-25.98 -218.97,-174.42 -244.96,-523.29 -244.96,-523.29l3.72 -3.72c0,0 348.86,-51.95 564.12,122.47 215.25,170.73 126.18,434.24 129.9,430.52zm189.28 11.14c0,0 241.24,137.33 452.78,-44.54 211.54,-181.86 226.4,-530.71 226.4,-530.71l-3.72 -3.72c0,0 -348.87,-40.82 -560.41,141.03 -207.84,181.86 -111.35,441.66 -115.05,437.94zm-181.86 -1157.94c0,0 -237.52,144.75 -452.78,-25.98 -218.97,-174.42 -244.96,-523.29 -244.96,-523.29l3.72 -3.72c0,0 348.87,-51.95 564.13,122.47 215.26,174.44 126.18,434.24 129.89,430.52zm189.28 14.84c0,0 241.24,137.33 452.78,-44.53 211.54,-181.86 226.4,-530.72 226.4,-530.72l-3.72 -3.71c0,0 -348.87,-40.82 -560.41,141.02 -211.54,181.86 -115.05,441.66 -115.05,437.94zm-7459.8 4564.96c0,0 -237.52,144.74 -452.78,-25.98 -218.96,-174.43 -244.95,-523.3 -244.95,-523.3l3.71 -3.71c0,0 348.87,-51.96 564.13,122.47 215.26,170.72 126.19,434.22 129.89,430.52zm189.28 11.13c0,0 241.24,137.33 452.79,-44.53 211.54,-181.86 226.39,-530.72 226.39,-530.72l-3.71 -3.71c0,0 -348.87,-40.82 -560.41,141.02 -211.55,181.85 -111.34,441.65 -115.06,437.94zm-189.28 -1157.93c0,0 -237.52,144.74 -452.78,-25.98 -218.96,-174.43 -244.95,-523.3 -244.95,-523.3l3.71 -3.71c0,0 348.87,-51.96 564.13,122.47 215.26,170.72 126.19,434.22 129.89,430.52zm189.28 11.12c0,0 241.24,137.33 452.79,-44.54 211.54,-181.86 226.39,-530.71 226.39,-530.71l-3.71 -3.72c0,0 -348.87,-40.82 -560.41,141.03 -211.55,181.86 -111.34,441.66 -115.06,437.94zm-189.28 -1154.22c0,0 -237.52,144.75 -452.78,-25.98 -218.96,-174.43 -244.95,-523.29 -244.95,-523.29l3.71 -3.72c0,0 348.87,-51.96 564.13,122.47 215.26,170.72 126.19,434.22 129.89,430.52zm189.28 11.14c0,0 241.24,137.32 452.79,-44.54 211.54,-181.86 226.39,-530.71 226.39,-530.71l-3.71 -3.72c0,0 -348.87,-40.82 -560.41,141.03 -211.55,181.84 -111.34,441.64 -115.06,437.94zm-189.28 -1154.24c0,0 -237.52,144.75 -452.78,-25.98 -218.96,-174.42 -244.95,-523.29 -244.95,-523.29l3.71 -3.72c0,0 348.87,-51.95 564.13,122.47 215.26,170.73 126.19,434.24 129.89,430.52zm189.28 11.14c0,0 241.24,137.33 452.79,-44.54 211.54,-181.86 226.39,-530.71 226.39,-530.71l-3.71 -3.72c0,0 -348.87,-40.82 -560.41,141.03 -211.55,181.86 -111.34,441.66 -115.06,437.94zm-185.56 -1157.94c0,0 -237.52,144.75 -452.78,-25.98 -218.96,-174.42 -244.96,-523.29 -244.96,-523.29l3.72 -3.72c0,0 348.87,-51.95 564.13,122.47 218.96,174.44 129.89,434.24 129.89,430.52zm189.28 14.84c0,0 241.24,137.33 452.78,-44.53 211.55,-181.86 226.4,-530.72 226.4,-530.72l-3.72 -3.71c0,0 -348.86,-40.82 -560.41,141.02 -207.84,181.86 -111.34,441.66 -115.05,437.94z"></path> <g> <path class="fil1" d="M7421.44 11531.75l0 -389.69 -2842.88 0 0 1751.75 701.44 0 0 -634.63 2141.44 0 0 -389.7 -2141.44 0 0 -337.73 2141.44 0zm-627.21 -3529.49l675.46 0 -990.93 -1733.19 -953.82 0 -994.63 1733.19 679.18 0c0,0 44.53,-148.45 107.63,-311.75l1369.48 0c63.09,167.02 107.63,311.75 107.63,311.75l0 0zm-797.95 -1473.39l7.42 -11.14 3.72 11.14c0,0 334.03,486.18 501.03,771.95l-1013.19 0c167.01,-285.77 501.02,-771.95 501.02,-771.95zm753.41 2185.97l0 1339.8 -1499.38 0 0 -1339.8 -701.44 0c0,0 0,1128.24 0,1228.45 0,215.26 367.42,501.04 660.62,501.04l519.58 0c285.77,0 545.57,0 545.57,0l519.59 0c293.19,0 660.62,-282.06 660.62,-501.04 0,-100.21 0,-1228.45 0,-1228.45l-705.16 0z"></path> </g> <rect class="fil2" x="1583.5" y="14151.96" width="8836.7" height="3221.44"></rect> <path class="fil2" d="M3958.76 15777.53l18.56 0 -18.56 0c0,-1117.12 905.56,-2018.96 2022.68,-2022.68 1117.12,3.72 2018.96,905.56 2022.68,2022.68 0,1117.12 -905.56,2018.96 -2022.68,2022.68 -1117.12,-3.72 -2022.68,-905.58 -2022.68,-2022.68z"></path> <g> <path class="fil3" d="M5981.44 17892.98l0 0c-1135.67,-3.71 -2063.5,-901.85 -2115.47,-2022.68l-3.7 0 0 -92.78 0 -96.5 3.72 0c51.95,-1120.82 979.79,-2018.96 2115.47,-2022.68 1165.35,0 2115.47,950.1 2115.47,2115.47 -3.74,1169.08 -950.13,2119.17 -2115.49,2119.17l0 0zm-1929.89 -2115.45c0,1061.44 864.74,1926.19 1926.19,1926.19 1061.44,-3.72 1926.19,-864.75 1926.19,-1926.19 0,-1061.45 -864.75,-1926.19 -1926.19,-1926.19 -1057.74,0 -1922.49,864.74 -1926.19,1926.19z"></path> </g> <g> <path class="fil3" d="M5981.44 13754.85c-1117.12,0 -2022.68,905.56 -2022.68,2022.68 0,1117.12 905.56,2022.68 2022.68,2022.68 1117.12,0 2022.68,-905.56 2022.68,-2022.68 -3.72,-1117.12 -909.28,-2022.68 -2022.68,-2022.68l0 0zm397.11 3566.59l-593.81 -456.5 70.51 -452.78 745.98 -374.85 486.18 241.24 -70.52 705.16c-181.84,159.58 -400.81,278.35 -638.34,337.73zm-1814.84 -771.96l51.96 -604.94 552.99 -111.35 616.08 578.97 -70.51 452.78 -675.47 215.26c-192.98,-141.03 -356.28,-319.17 -475.05,-530.72zm1406.59 -2390.1c267.22,0 519.6,66.81 742.28,181.86l174.42 456.5 -393.4 330.31 -875.88 -137.33 -192.99 -382.27 360.01 -437.94c59.38,-7.42 122.47,-11.13 185.56,-11.13zm1603.3 1725.77l-441.64 341.44 -489.9 -244.95 -107.63 -797.93 393.41 -326.6 567.83 382.27c55.67,163.3 89.07,341.45 89.07,527.01 -7.42,40.82 -7.42,81.65 -11.14,118.76zm-2969.06 -7.43l-226.4 -345.15c37.12,-244.95 126.19,-467.63 259.8,-664.32l731.14 -218.96 174.42 348.87 -393.4 768.25 -545.56 111.31zm-22.27 -1054.01c-133.61,192.99 -222.68,415.67 -267.22,653.2l-274.64 51.96c48.26,-374.85 200.42,-716.29 430.52,-994.63l111.34 289.47zm3061.85 1061.44c3.71,-40.82 3.71,-77.94 3.71,-118.77 0,-178.15 -29.69,-348.87 -77.93,-508.46l248.66 -137.32c74.23,204.12 115.05,426.8 115.05,656.9 0,129.89 -14.84,256.08 -37.12,378.56l-252.37 -270.91zm-686.6 -1796.29l-248.66 174.43c-222.68,-111.35 -475.06,-170.72 -738.56,-170.72 -59.37,0 -118.76,3.71 -178.14,7.42l-237.52 -226.4c137.32,-29.7 278.35,-48.25 426.8,-48.25 356.29,0.02 690.32,96.52 976.08,263.52zm-2705.56 2597.93l293.19 -37.11c111.35,181.86 259.8,341.45 430.52,467.63l11.14 341.45c-311.75,-185.56 -567.85,-452.78 -734.85,-771.97zm2018.97 1020.63l137.33 -322.89c237.52,-63.09 452.78,-181.86 638.34,-334.03l326.6 89.08c-285.78,296.91 -671.76,504.75 -1102.27,567.84z"></path> </g> <path class="fil4" d="M4286.2 14511.95l-2702.69 0 0 352.57 2488.52 0c60.01,-124.72 131.9,-242.74 214.17,-352.57zm-350.54 720l-2352.15 0 0 352.57 2289.15 0c11.11,-120.69 32.41,-238.51 63,-352.57zm-64.33 720.01l-2287.82 0 0 352.57 2348.21 0c-29.71,-114.13 -50.13,-231.94 -60.39,-352.57zm191.86 716.28l-2479.68 0 0 352.57 2688.91 0c-80.56,-110.02 -150.78,-228.03 -209.23,-352.57zm3834.27 0c-58.21,124.57 -128.11,242.57 -208.26,352.57l2731.01 0 0 -352.57 -2522.75 0zm131.04 -363.71l2391.71 0 0 -352.57 -2331.21 0c-10.39,120.66 -30.85,238.47 -60.5,352.57zm60.01 -720.01l2331.7 0 0 -352.57 -2393.78 0c30.31,114.08 51.29,231.89 62.08,352.57zm-197.54 -720l2529.24 0 0 -352.57 -2742.5 0c81.96,109.84 153.54,227.85 213.26,352.57z"></path> </g> </g> </svg> 